<mxfile host="app.diagrams.net" modified="2024-01-12T06:22:42.953Z" agent="Mozilla/5.0 (Windows NT 10.0; Win64; x64) AppleWebKit/537.36 (KHTML, like Gecko) Chrome/120.0.0.0 Safari/537.36 Edg/120.0.0.0" etag="Txse82u6J5qJJDDbX-zf" version="22.1.18" type="github">
  <diagram name="Page-1" id="52a04d89-c75d-2922-d76d-85b35f80e030">
    <mxGraphModel dx="1413" dy="746" grid="1" gridSize="10" guides="1" tooltips="1" connect="1" arrows="1" fold="1" page="1" pageScale="1" pageWidth="1100" pageHeight="850" background="none" math="0" shadow="0">
      <root>
        <mxCell id="0" />
        <mxCell id="1" parent="0" />
        <mxCell id="jRr14fNT7QDTzJk1nxz2-1" value="客戶" style="rounded=0;whiteSpace=wrap;html=1;" parent="1" vertex="1">
          <mxGeometry x="330" y="350" width="120" height="60" as="geometry" />
        </mxCell>
        <mxCell id="jRr14fNT7QDTzJk1nxz2-7" value="" style="edgeStyle=orthogonalEdgeStyle;rounded=0;orthogonalLoop=1;jettySize=auto;html=1;exitX=1;exitY=0.5;exitDx=0;exitDy=0;" parent="1" source="jRr14fNT7QDTzJk1nxz2-16" target="jRr14fNT7QDTzJk1nxz2-6" edge="1">
          <mxGeometry relative="1" as="geometry">
            <mxPoint x="640" y="380" as="sourcePoint" />
          </mxGeometry>
        </mxCell>
        <mxCell id="jRr14fNT7QDTzJk1nxz2-13" value="" style="edgeStyle=orthogonalEdgeStyle;rounded=0;orthogonalLoop=1;jettySize=auto;html=1;" parent="1" source="jRr14fNT7QDTzJk1nxz2-6" target="jRr14fNT7QDTzJk1nxz2-12" edge="1">
          <mxGeometry relative="1" as="geometry" />
        </mxCell>
        <mxCell id="jRr14fNT7QDTzJk1nxz2-6" value="臨時坐席" style="whiteSpace=wrap;html=1;rounded=0;" parent="1" vertex="1">
          <mxGeometry x="760" y="350" width="120" height="60" as="geometry" />
        </mxCell>
        <mxCell id="jRr14fNT7QDTzJk1nxz2-22" value="" style="edgeStyle=orthogonalEdgeStyle;rounded=0;orthogonalLoop=1;jettySize=auto;html=1;exitX=1;exitY=0.5;exitDx=0;exitDy=0;entryX=1;entryY=0.5;entryDx=0;entryDy=0;" parent="1" source="jRr14fNT7QDTzJk1nxz2-12" target="jRr14fNT7QDTzJk1nxz2-23" edge="1">
          <mxGeometry relative="1" as="geometry">
            <mxPoint x="1070" y="540" as="targetPoint" />
            <Array as="points">
              <mxPoint x="1100" y="380" />
              <mxPoint x="1100" y="540" />
            </Array>
          </mxGeometry>
        </mxCell>
        <mxCell id="jRr14fNT7QDTzJk1nxz2-42" value="是" style="edgeLabel;html=1;align=center;verticalAlign=middle;resizable=0;points=[];" parent="jRr14fNT7QDTzJk1nxz2-22" vertex="1" connectable="0">
          <mxGeometry x="-0.2646" y="-2" relative="1" as="geometry">
            <mxPoint x="2" y="38" as="offset" />
          </mxGeometry>
        </mxCell>
        <mxCell id="jRr14fNT7QDTzJk1nxz2-12" value="同意人工留言" style="rhombus;whiteSpace=wrap;html=1;rounded=0;" parent="1" vertex="1">
          <mxGeometry x="960" y="330" width="90" height="100" as="geometry" />
        </mxCell>
        <mxCell id="jRr14fNT7QDTzJk1nxz2-16" value="IVR排隊" style="rounded=1;whiteSpace=wrap;html=1;" parent="1" vertex="1">
          <mxGeometry x="560" y="350" width="120" height="60" as="geometry" />
        </mxCell>
        <mxCell id="jRr14fNT7QDTzJk1nxz2-18" value="" style="endArrow=classic;html=1;rounded=0;exitX=0.5;exitY=1;exitDx=0;exitDy=0;" parent="1" source="jRr14fNT7QDTzJk1nxz2-12" edge="1">
          <mxGeometry width="50" height="50" relative="1" as="geometry">
            <mxPoint x="1000" y="430" as="sourcePoint" />
            <mxPoint x="520" y="380" as="targetPoint" />
            <Array as="points">
              <mxPoint x="1005" y="460" />
              <mxPoint x="520" y="460" />
            </Array>
          </mxGeometry>
        </mxCell>
        <mxCell id="jRr14fNT7QDTzJk1nxz2-20" value="否" style="edgeLabel;html=1;align=center;verticalAlign=middle;resizable=0;points=[];" parent="jRr14fNT7QDTzJk1nxz2-18" vertex="1" connectable="0">
          <mxGeometry x="-0.092" y="-2" relative="1" as="geometry">
            <mxPoint as="offset" />
          </mxGeometry>
        </mxCell>
        <mxCell id="jRr14fNT7QDTzJk1nxz2-25" value="" style="edgeStyle=orthogonalEdgeStyle;rounded=0;orthogonalLoop=1;jettySize=auto;html=1;entryX=1;entryY=0.5;entryDx=0;entryDy=0;" parent="1" source="jRr14fNT7QDTzJk1nxz2-23" target="AQV8VEkUSa6QAiec6kYD-4" edge="1">
          <mxGeometry relative="1" as="geometry">
            <mxPoint x="860" y="540" as="targetPoint" />
          </mxGeometry>
        </mxCell>
        <mxCell id="jRr14fNT7QDTzJk1nxz2-23" value="人工留言登記" style="rounded=1;whiteSpace=wrap;html=1;" parent="1" vertex="1">
          <mxGeometry x="940" y="510" width="120" height="60" as="geometry" />
        </mxCell>
        <mxCell id="jRr14fNT7QDTzJk1nxz2-27" value="" style="edgeStyle=orthogonalEdgeStyle;rounded=0;orthogonalLoop=1;jettySize=auto;html=1;exitX=0;exitY=0.5;exitDx=0;exitDy=0;" parent="1" source="AQV8VEkUSa6QAiec6kYD-4" edge="1">
          <mxGeometry relative="1" as="geometry">
            <mxPoint x="740" y="540" as="sourcePoint" />
            <mxPoint x="650" y="540" as="targetPoint" />
          </mxGeometry>
        </mxCell>
        <mxCell id="jRr14fNT7QDTzJk1nxz2-29" value="" style="edgeStyle=orthogonalEdgeStyle;rounded=0;orthogonalLoop=1;jettySize=auto;html=1;exitX=0.5;exitY=1;exitDx=0;exitDy=0;" parent="1" source="AQV8VEkUSa6QAiec6kYD-1" target="jRr14fNT7QDTzJk1nxz2-28" edge="1">
          <mxGeometry relative="1" as="geometry">
            <Array as="points">
              <mxPoint x="585" y="560" />
            </Array>
            <mxPoint x="585" y="570" as="sourcePoint" />
          </mxGeometry>
        </mxCell>
        <mxCell id="AQV8VEkUSa6QAiec6kYD-18" value="分配留言" style="edgeLabel;html=1;align=center;verticalAlign=middle;resizable=0;points=[];" parent="jRr14fNT7QDTzJk1nxz2-29" vertex="1" connectable="0">
          <mxGeometry x="0.181" y="1" relative="1" as="geometry">
            <mxPoint as="offset" />
          </mxGeometry>
        </mxCell>
        <mxCell id="jRr14fNT7QDTzJk1nxz2-32" value="" style="edgeStyle=orthogonalEdgeStyle;rounded=0;orthogonalLoop=1;jettySize=auto;html=1;entryX=1;entryY=0.5;entryDx=0;entryDy=0;" parent="1" source="jRr14fNT7QDTzJk1nxz2-28" target="AQV8VEkUSa6QAiec6kYD-5" edge="1">
          <mxGeometry relative="1" as="geometry">
            <mxPoint x="440" y="680" as="targetPoint" />
          </mxGeometry>
        </mxCell>
        <mxCell id="jRr14fNT7QDTzJk1nxz2-41" value="外呼" style="edgeLabel;html=1;align=center;verticalAlign=middle;resizable=0;points=[];" parent="jRr14fNT7QDTzJk1nxz2-32" vertex="1" connectable="0">
          <mxGeometry x="-0.0319" y="-2" relative="1" as="geometry">
            <mxPoint as="offset" />
          </mxGeometry>
        </mxCell>
        <mxCell id="jRr14fNT7QDTzJk1nxz2-28" value="一線坐席處理" style="whiteSpace=wrap;html=1;" parent="1" vertex="1">
          <mxGeometry x="525" y="650" width="120" height="60" as="geometry" />
        </mxCell>
        <mxCell id="jRr14fNT7QDTzJk1nxz2-36" value="" style="edgeStyle=orthogonalEdgeStyle;rounded=0;orthogonalLoop=1;jettySize=auto;html=1;entryX=0.5;entryY=1;entryDx=0;entryDy=0;exitX=0.5;exitY=0;exitDx=0;exitDy=0;" parent="1" source="AQV8VEkUSa6QAiec6kYD-5" target="AQV8VEkUSa6QAiec6kYD-6" edge="1">
          <mxGeometry relative="1" as="geometry">
            <mxPoint x="390" y="710" as="sourcePoint" />
            <mxPoint x="390" y="790" as="targetPoint" />
          </mxGeometry>
        </mxCell>
        <mxCell id="jRr14fNT7QDTzJk1nxz2-38" value="" style="edgeStyle=orthogonalEdgeStyle;rounded=0;orthogonalLoop=1;jettySize=auto;html=1;exitX=0;exitY=0.5;exitDx=0;exitDy=0;" parent="1" source="AQV8VEkUSa6QAiec6kYD-6" target="jRr14fNT7QDTzJk1nxz2-37" edge="1">
          <mxGeometry relative="1" as="geometry">
            <mxPoint x="330" y="555" as="sourcePoint" />
          </mxGeometry>
        </mxCell>
        <mxCell id="jRr14fNT7QDTzJk1nxz2-37" value="結束" style="ellipse;whiteSpace=wrap;html=1;" parent="1" vertex="1">
          <mxGeometry x="190" y="505" width="70" height="70" as="geometry" />
        </mxCell>
        <mxCell id="AQV8VEkUSa6QAiec6kYD-1" value="一線坐席管理人" style="rounded=1;whiteSpace=wrap;html=1;" parent="1" vertex="1">
          <mxGeometry x="530" y="510" width="120" height="60" as="geometry" />
        </mxCell>
        <mxCell id="AQV8VEkUSa6QAiec6kYD-4" value="留言池" style="swimlane;whiteSpace=wrap;html=1;startSize=23;" parent="1" vertex="1">
          <mxGeometry x="730" y="485" width="140" height="110" as="geometry" />
        </mxCell>
        <mxCell id="AQV8VEkUSa6QAiec6kYD-5" value="電話回訪客戶" style="rounded=1;whiteSpace=wrap;html=1;" parent="1" vertex="1">
          <mxGeometry x="330" y="650" width="120" height="60" as="geometry" />
        </mxCell>
        <mxCell id="AQV8VEkUSa6QAiec6kYD-6" value="業務處理" style="rounded=1;whiteSpace=wrap;html=1;" parent="1" vertex="1">
          <mxGeometry x="330" y="510" width="120" height="60" as="geometry" />
        </mxCell>
        <mxCell id="AQV8VEkUSa6QAiec6kYD-7" value="開始" style="ellipse;whiteSpace=wrap;html=1;aspect=fixed;" parent="1" vertex="1">
          <mxGeometry x="190" y="345" width="70" height="70" as="geometry" />
        </mxCell>
        <mxCell id="EMFFMz4qL0UKLNaEbUyU-3" value="" style="endArrow=none;dashed=1;html=1;rounded=0;exitX=1;exitY=0.5;exitDx=0;exitDy=0;entryX=0;entryY=0.5;entryDx=0;entryDy=0;" edge="1" parent="1" source="AQV8VEkUSa6QAiec6kYD-7" target="jRr14fNT7QDTzJk1nxz2-1">
          <mxGeometry width="50" height="50" relative="1" as="geometry">
            <mxPoint x="270" y="390" as="sourcePoint" />
            <mxPoint x="320" y="340" as="targetPoint" />
          </mxGeometry>
        </mxCell>
        <mxCell id="EMFFMz4qL0UKLNaEbUyU-8" value="" style="endArrow=block;dashed=1;endFill=0;endSize=12;html=1;rounded=0;" edge="1" parent="1">
          <mxGeometry width="160" relative="1" as="geometry">
            <mxPoint x="450" y="379.5" as="sourcePoint" />
            <mxPoint x="560" y="379.5" as="targetPoint" />
          </mxGeometry>
        </mxCell>
        <mxCell id="EMFFMz4qL0UKLNaEbUyU-9" value="来電" style="edgeLabel;html=1;align=center;verticalAlign=middle;resizable=0;points=[];" vertex="1" connectable="0" parent="EMFFMz4qL0UKLNaEbUyU-8">
          <mxGeometry x="-0.3818" relative="1" as="geometry">
            <mxPoint as="offset" />
          </mxGeometry>
        </mxCell>
        <mxCell id="EMFFMz4qL0UKLNaEbUyU-14" value="" style="edgeStyle=orthogonalEdgeStyle;rounded=0;orthogonalLoop=1;jettySize=auto;html=1;" edge="1" parent="1" source="EMFFMz4qL0UKLNaEbUyU-11" target="EMFFMz4qL0UKLNaEbUyU-13">
          <mxGeometry relative="1" as="geometry" />
        </mxCell>
        <mxCell id="EMFFMz4qL0UKLNaEbUyU-11" value="監控大屏實時顯示" style="rounded=1;whiteSpace=wrap;html=1;" vertex="1" parent="1">
          <mxGeometry x="750" y="130" width="120" height="60" as="geometry" />
        </mxCell>
        <mxCell id="EMFFMz4qL0UKLNaEbUyU-13" value="坐席管理員管理臨時坐席" style="rounded=1;whiteSpace=wrap;html=1;" vertex="1" parent="1">
          <mxGeometry x="950" y="130" width="120" height="60" as="geometry" />
        </mxCell>
        <mxCell id="EMFFMz4qL0UKLNaEbUyU-16" value="熱線坐席" style="whiteSpace=wrap;html=1;rounded=1;" vertex="1" parent="1">
          <mxGeometry x="560" y="230" width="120" height="60" as="geometry" />
        </mxCell>
        <mxCell id="EMFFMz4qL0UKLNaEbUyU-18" value="業務處理" style="whiteSpace=wrap;html=1;rounded=1;" vertex="1" parent="1">
          <mxGeometry x="760" y="230" width="120" height="60" as="geometry" />
        </mxCell>
        <mxCell id="EMFFMz4qL0UKLNaEbUyU-20" value="結束" style="ellipse;whiteSpace=wrap;html=1;rounded=1;" vertex="1" parent="1">
          <mxGeometry x="990" y="230" width="60" height="60" as="geometry" />
        </mxCell>
        <mxCell id="EMFFMz4qL0UKLNaEbUyU-23" value="" style="endArrow=open;endSize=12;dashed=1;html=1;rounded=0;entryX=0;entryY=0.5;entryDx=0;entryDy=0;" edge="1" parent="1" target="EMFFMz4qL0UKLNaEbUyU-18">
          <mxGeometry width="160" relative="1" as="geometry">
            <mxPoint x="680" y="260" as="sourcePoint" />
            <mxPoint x="840" y="260" as="targetPoint" />
          </mxGeometry>
        </mxCell>
        <mxCell id="EMFFMz4qL0UKLNaEbUyU-24" value="" style="endArrow=open;endSize=12;dashed=1;html=1;rounded=0;entryX=0;entryY=0.5;entryDx=0;entryDy=0;" edge="1" parent="1" target="EMFFMz4qL0UKLNaEbUyU-20">
          <mxGeometry width="160" relative="1" as="geometry">
            <mxPoint x="880" y="259.5" as="sourcePoint" />
            <mxPoint x="960" y="259.5" as="targetPoint" />
          </mxGeometry>
        </mxCell>
        <mxCell id="EMFFMz4qL0UKLNaEbUyU-25" value="" style="endArrow=open;endSize=12;dashed=1;html=1;rounded=0;entryX=0.5;entryY=1;entryDx=0;entryDy=0;exitX=0.5;exitY=0;exitDx=0;exitDy=0;exitPerimeter=0;" edge="1" parent="1" source="jRr14fNT7QDTzJk1nxz2-16" target="EMFFMz4qL0UKLNaEbUyU-16">
          <mxGeometry width="160" relative="1" as="geometry">
            <mxPoint x="620" y="345" as="sourcePoint" />
            <mxPoint x="700" y="345" as="targetPoint" />
          </mxGeometry>
        </mxCell>
      </root>
    </mxGraphModel>
  </diagram>
</mxfile>
